<svg width="4403" height="834" viewBox="0 0 4403 834" fill="none" xmlns="http://www.w3.org/2000/svg">
<path d="M1346.02 207.959C1346.02 255.493 1329.63 295.105 1296.85 326.795C1264.61 357.938 1215.16 373.509 1148.51 373.509H1038.69V612H964.105V40.7704H1148.51C1212.98 40.7704 1261.88 56.3414 1295.21 87.4844C1329.08 118.628 1346.02 158.786 1346.02 207.959ZM1148.51 312.043C1190.03 312.043 1220.63 303.028 1240.3 284.997C1259.97 266.967 1269.8 241.288 1269.8 207.959C1269.8 137.477 1229.37 102.236 1148.51 102.236H1038.69V312.043H1148.51ZM1791.12 370.231C1791.12 384.437 1790.3 399.462 1788.66 415.307H1429.7C1432.43 459.563 1447.45 494.257 1474.77 519.39C1502.64 543.977 1536.24 556.27 1575.58 556.27C1607.81 556.27 1634.59 548.894 1655.89 534.142C1677.75 518.844 1693.05 498.628 1701.79 473.495H1782.11C1770.09 516.658 1746.04 551.899 1709.98 579.218C1673.92 605.99 1629.12 619.376 1575.58 619.376C1532.96 619.376 1494.71 609.815 1460.84 590.692C1427.51 571.569 1401.29 544.523 1382.16 509.556C1363.04 474.041 1353.48 433.064 1353.48 386.622C1353.48 340.181 1362.77 299.476 1381.34 264.508C1399.92 229.541 1425.87 202.769 1459.2 184.192C1493.08 165.069 1531.87 155.508 1575.58 155.508C1618.19 155.508 1655.89 164.796 1688.68 183.373C1721.46 201.949 1746.59 227.628 1764.08 260.411C1782.11 292.647 1791.12 329.253 1791.12 370.231ZM1714.08 354.66C1714.08 326.248 1707.8 301.935 1695.23 281.719C1682.67 260.957 1665.46 245.386 1643.6 235.004C1622.29 224.077 1598.52 218.613 1572.3 218.613C1534.6 218.613 1502.36 230.634 1475.59 254.674C1449.37 278.714 1434.34 312.043 1430.52 354.66H1714.08ZM2051.02 154.688C2105.65 154.688 2149.91 171.352 2183.78 204.681C2217.66 237.463 2234.6 284.997 2234.6 347.284V612H2160.84V357.938C2160.84 313.135 2149.64 278.987 2127.23 255.493C2104.83 231.453 2074.24 219.433 2035.44 219.433C1996.11 219.433 1964.69 231.726 1941.2 256.313C1918.25 280.9 1906.77 316.687 1906.77 363.675V612H1832.19V162.884H1906.77V226.809C1921.53 203.861 1941.47 186.104 1966.6 173.538C1992.28 160.971 2020.42 154.688 2051.02 154.688ZM2390.02 224.35V489.067C2390.02 510.921 2394.67 526.493 2403.96 535.781C2413.24 544.523 2429.36 548.894 2452.31 548.894H2507.22V612H2440.02C2398.49 612 2367.35 602.439 2346.59 583.316C2325.82 564.193 2315.44 532.776 2315.44 489.067V224.35H2257.26V162.884H2315.44V49.7854H2390.02V162.884H2507.22V224.35H2390.02ZM2512.35 385.803C2512.35 339.908 2521.64 299.749 2540.21 265.328C2558.79 230.36 2584.2 203.315 2616.43 184.192C2649.21 165.069 2685.55 155.508 2725.43 155.508C2764.77 155.508 2798.92 163.976 2827.88 180.914C2856.83 197.851 2878.42 219.16 2892.62 244.839V162.884H2968.02V612H2892.62V528.405C2877.87 554.631 2855.74 576.486 2826.24 593.97C2797.28 610.907 2763.41 619.376 2724.61 619.376C2684.73 619.376 2648.67 609.541 2616.43 589.872C2584.2 570.203 2558.79 542.611 2540.21 507.097C2521.64 471.583 2512.35 431.151 2512.35 385.803ZM2892.62 386.622C2892.62 352.747 2885.79 323.243 2872.13 298.11C2858.47 272.977 2839.9 253.854 2816.4 240.741C2793.46 227.082 2768.05 220.252 2740.18 220.252C2712.32 220.252 2686.91 226.809 2663.97 239.922C2641.02 253.035 2622.72 272.158 2609.06 297.291C2595.4 322.424 2588.57 351.928 2588.57 385.803C2588.57 420.224 2595.4 450.274 2609.06 475.954C2622.72 501.087 2641.02 520.483 2663.97 534.142C2686.91 547.255 2712.32 553.812 2740.18 553.812C2768.05 553.812 2793.46 547.255 2816.4 534.142C2839.9 520.483 2858.47 501.087 2872.13 475.954C2885.79 450.274 2892.62 420.497 2892.62 386.622ZM3221.9 155.508C3260.7 155.508 3294.57 163.976 3323.53 180.914C3353.03 197.851 3374.89 219.16 3389.09 244.839V162.884H3464.49V621.835C3464.49 662.812 3455.75 699.146 3438.27 730.84C3420.78 763.07 3395.65 788.2 3362.87 806.23C3330.63 824.26 3292.93 833.28 3249.77 833.28C3190.76 833.28 3141.59 819.35 3102.25 791.48C3062.91 763.62 3039.69 725.65 3032.59 677.564H3106.35C3114.54 704.883 3131.48 726.74 3157.16 743.13C3182.84 760.07 3213.71 768.54 3249.77 768.54C3290.75 768.54 3324.08 755.7 3349.75 730.02C3375.98 704.337 3389.09 668.276 3389.09 621.835V527.586C3374.34 553.812 3352.49 575.666 3323.53 593.15C3294.57 610.634 3260.7 619.376 3221.9 619.376C3182.02 619.376 3145.69 609.541 3112.9 589.872C3080.67 570.203 3055.26 542.611 3036.68 507.097C3018.11 471.583 3008.82 431.151 3008.82 385.803C3008.82 339.908 3018.11 299.749 3036.68 265.328C3055.26 230.36 3080.67 203.315 3112.9 184.192C3145.69 165.069 3182.02 155.508 3221.9 155.508ZM3389.09 386.622C3389.09 352.747 3382.26 323.243 3368.6 298.11C3354.95 272.977 3336.37 253.854 3312.87 240.741C3289.93 227.082 3264.52 220.252 3236.66 220.252C3208.79 220.252 3183.39 226.809 3160.44 239.922C3137.49 253.035 3119.19 272.158 3105.53 297.291C3091.87 322.424 3085.04 351.928 3085.04 385.803C3085.04 420.224 3091.87 450.274 3105.53 475.954C3119.19 501.087 3137.49 520.483 3160.44 534.142C3183.39 547.255 3208.79 553.812 3236.66 553.812C3264.52 553.812 3289.93 547.255 3312.87 534.142C3336.37 520.483 3354.95 501.087 3368.6 475.954C3382.26 450.274 3389.09 420.497 3389.09 386.622ZM3729.03 619.376C3686.96 619.376 3648.71 609.815 3614.29 590.692C3580.42 571.569 3553.64 544.523 3533.98 509.556C3514.85 474.041 3505.29 433.064 3505.29 386.622C3505.29 340.727 3515.13 300.296 3534.8 265.328C3555.01 229.814 3582.33 202.769 3616.75 184.192C3651.17 165.069 3689.69 155.508 3732.31 155.508C3774.92 155.508 3813.44 165.069 3847.87 184.192C3882.29 202.769 3909.33 229.541 3929 264.508C3949.22 299.476 3959.32 340.181 3959.32 386.622C3959.32 433.064 3948.94 474.041 3928.18 509.556C3907.97 544.523 3880.37 571.569 3845.41 590.692C3810.44 609.815 3771.65 619.376 3729.03 619.376ZM3729.03 553.812C3755.8 553.812 3780.93 547.528 3804.43 534.962C3827.92 522.395 3846.77 503.545 3860.98 478.412C3875.73 453.279 3883.11 422.683 3883.11 386.622C3883.11 350.562 3876 319.965 3861.8 294.832C3847.59 269.699 3829.02 251.122 3806.07 239.102C3783.12 226.536 3758.26 220.252 3731.49 220.252C3704.17 220.252 3679.04 226.536 3656.09 239.102C3633.69 251.122 3615.66 269.699 3602 294.832C3588.34 319.965 3581.51 350.562 3581.51 386.622C3581.51 423.229 3588.07 454.099 3601.18 479.232C3614.84 504.365 3632.87 523.215 3655.27 535.781C3677.67 547.801 3702.26 553.812 3729.03 553.812ZM4218.84 154.688C4273.47 154.688 4317.73 171.352 4351.6 204.681C4385.48 237.463 4402.42 284.997 4402.42 347.284V612H4328.66V357.938C4328.66 313.135 4317.46 278.987 4295.05 255.493C4272.65 231.453 4242.06 219.433 4203.26 219.433C4163.93 219.433 4132.51 231.726 4109.02 256.313C4086.07 280.9 4074.59 316.687 4074.59 363.675V612H4000.01V162.884H4074.59V226.809C4089.35 203.861 4109.29 186.104 4134.42 173.538C4160.1 160.971 4188.24 154.688 4218.84 154.688Z" fill="white"/>
<path d="M357.58 0.220433L357.12 141.12L42.4402 362.59C42.3466 362.657 42.2388 362.7 42.1253 362.718C42.0118 362.735 41.8955 362.727 41.7854 362.692C41.6753 362.657 41.5743 362.597 41.4902 362.517C41.4061 362.437 41.3411 362.339 41.3002 362.23L0.0501979 249.48C-0.00114979 249.338 -0.0133832 249.185 0.0147822 249.037C0.0429476 248.889 0.110468 248.752 0.210202 248.64C0.376868 248.454 2.60687 246.867 6.9002 243.88C68.2735 201.094 184.93 119.844 356.87 0.130436C357.157 -0.0695637 357.394 -0.0395674 357.58 0.220433Z" fill="white"/>
<path d="M357.121 141.12L357.581 0.220459L714.001 248.56C714.122 248.644 714.211 248.766 714.254 248.907C714.298 249.049 714.293 249.201 714.241 249.34L672.781 362.65C672.758 362.712 672.721 362.767 672.673 362.812C672.625 362.857 672.568 362.891 672.505 362.91C672.442 362.929 672.376 362.934 672.311 362.924C672.246 362.913 672.185 362.888 672.131 362.85L357.121 141.12Z" fill="#D4D9E1"/>
<path d="M357.15 393.43L357.16 264.19C357.16 264.032 357.128 263.876 357.066 263.73C357.004 263.584 356.914 263.451 356.8 263.34L356.34 262.88L356.71 262.63C356.837 262.54 356.99 262.492 357.146 262.494C357.303 262.496 357.454 262.547 357.58 262.64C428.69 315.56 481.72 355.36 546.98 403.26C585.5 431.527 615.67 453.67 637.49 469.69C637.592 469.766 637.669 469.872 637.708 469.992C637.748 470.112 637.748 470.241 637.71 470.36L604.96 574.74C604.951 574.768 604.936 574.793 604.916 574.813C604.896 574.834 604.871 574.849 604.843 574.858C604.816 574.867 604.787 574.869 604.758 574.864C604.73 574.859 604.703 574.848 604.68 574.83L357.15 393.43Z" fill="white"/>
<path d="M356.34 262.88L356.8 263.34C356.914 263.451 357.004 263.584 357.066 263.73C357.128 263.876 357.16 264.032 357.16 264.19L357.15 393.43L109.82 574.66C109.769 574.697 109.711 574.72 109.65 574.729C109.589 574.739 109.527 574.733 109.468 574.714C109.41 574.694 109.357 574.661 109.313 574.617C109.27 574.573 109.238 574.519 109.22 574.461L76.2896 469.88C76.2833 469.856 76.2837 469.831 76.2908 469.808C76.2979 469.785 76.3114 469.765 76.3295 469.75C119.17 438.35 148.956 416.537 165.69 404.31C227.24 359.35 292.83 310.16 356.34 262.88Z" fill="#D4D9E1"/>
<path d="M238.411 607.41C238.382 607.409 238.355 607.4 238.332 607.383C238.31 607.365 238.293 607.341 238.284 607.313C238.275 607.286 238.275 607.257 238.284 607.23C238.292 607.202 238.308 607.178 238.331 607.16L354.901 528.521C355.033 528.434 355.189 528.386 355.347 528.388C355.506 528.39 355.661 528.44 355.791 528.531L469.961 607.531C470.01 607.561 470.047 607.607 470.067 607.661C470.087 607.715 470.088 607.773 470.071 607.828C470.054 607.883 470.019 607.931 469.972 607.964C469.925 607.997 469.868 608.013 469.811 608.01L238.411 607.41Z" fill="white"/>
</svg>
