<svg width="715" height="609" viewBox="0 0 715 609" fill="none" xmlns="http://www.w3.org/2000/svg">
<g clip-path="url(#clip0_7_118)">
<path d="M357.58 0.220433L357.12 141.12L42.4402 362.59C42.3466 362.657 42.2388 362.7 42.1253 362.718C42.0118 362.735 41.8955 362.727 41.7854 362.692C41.6753 362.657 41.5743 362.597 41.4902 362.517C41.4061 362.437 41.3411 362.339 41.3002 362.23L0.0501979 249.48C-0.00114979 249.338 -0.0133832 249.185 0.0147822 249.037C0.0429476 248.889 0.110468 248.752 0.210202 248.64C0.376868 248.454 2.60687 246.867 6.9002 243.88C68.2735 201.094 184.93 119.844 356.87 0.130436C357.157 -0.0695637 357.394 -0.0395674 357.58 0.220433Z" fill="white"/>
<path d="M357.121 141.12L357.581 0.220459L714.001 248.56C714.122 248.644 714.211 248.766 714.254 248.907C714.298 249.049 714.293 249.201 714.241 249.34L672.781 362.65C672.758 362.712 672.721 362.767 672.673 362.812C672.625 362.857 672.568 362.891 672.505 362.91C672.442 362.929 672.376 362.934 672.311 362.924C672.246 362.913 672.185 362.888 672.131 362.85L357.121 141.12Z" fill="#D4D9E1"/>
<path d="M357.15 393.43L357.16 264.19C357.16 264.032 357.128 263.876 357.066 263.73C357.004 263.584 356.914 263.451 356.8 263.34L356.34 262.88L356.71 262.63C356.837 262.54 356.99 262.492 357.146 262.494C357.303 262.496 357.454 262.547 357.58 262.64C428.69 315.56 481.72 355.36 546.98 403.26C585.5 431.527 615.67 453.67 637.49 469.69C637.592 469.766 637.669 469.872 637.708 469.992C637.748 470.112 637.748 470.241 637.71 470.36L604.96 574.74C604.951 574.768 604.936 574.793 604.916 574.813C604.896 574.834 604.871 574.849 604.843 574.858C604.816 574.867 604.787 574.869 604.758 574.864C604.73 574.859 604.703 574.848 604.68 574.83L357.15 393.43Z" fill="white"/>
<path d="M356.34 262.88L356.8 263.34C356.914 263.451 357.004 263.584 357.066 263.73C357.128 263.876 357.16 264.032 357.16 264.19L357.15 393.43L109.82 574.66C109.769 574.697 109.711 574.72 109.65 574.729C109.589 574.739 109.527 574.733 109.468 574.714C109.41 574.694 109.357 574.661 109.313 574.617C109.27 574.573 109.238 574.519 109.22 574.461L76.2896 469.88C76.2833 469.856 76.2837 469.831 76.2908 469.808C76.2979 469.785 76.3114 469.765 76.3295 469.75C119.17 438.35 148.956 416.537 165.69 404.31C227.24 359.35 292.83 310.16 356.34 262.88Z" fill="#D4D9E1"/>
<path d="M238.411 607.41C238.382 607.409 238.355 607.399 238.332 607.382C238.31 607.364 238.293 607.341 238.284 607.313C238.275 607.286 238.275 607.257 238.284 607.23C238.292 607.202 238.308 607.178 238.331 607.16L354.901 528.52C355.033 528.433 355.189 528.386 355.347 528.388C355.506 528.39 355.661 528.44 355.791 528.531L469.961 607.531C470.01 607.561 470.047 607.607 470.067 607.661C470.087 607.715 470.088 607.773 470.071 607.828C470.054 607.883 470.019 607.931 469.972 607.964C469.925 607.997 469.868 608.013 469.811 608.01L238.411 607.41Z" fill="white"/>
</g>
<defs>
<clipPath id="clip0_7_118">
<rect width="715" height="609" fill="white"/>
</clipPath>
</defs>
</svg>
