<svg width="3439" height="793" viewBox="0 0 3439 793" fill="none" xmlns="http://www.w3.org/2000/svg">
<path d="M381.913 167.189C381.913 214.723 365.522 254.335 332.74 286.025C300.504 317.168 251.057 332.739 184.4 332.739H74.5799V571.23H0.000304348V-4.7031e-05H184.4C248.872 -4.7031e-05 297.772 15.5715 331.101 46.7146C364.976 77.8577 381.913 118.016 381.913 167.189ZM184.4 271.273C225.924 271.273 256.521 262.258 276.191 244.227C295.86 226.197 305.694 200.518 305.694 167.189C305.694 96.7075 265.263 61.4666 184.4 61.4666H74.5799V271.273H184.4ZM827.015 329.461C827.015 343.667 826.195 358.692 824.556 374.537H465.591C468.323 418.793 483.348 453.487 510.667 478.62C538.531 503.207 572.133 515.5 611.472 515.5C643.708 515.5 670.48 508.124 691.788 493.372C713.643 478.074 728.942 457.858 737.683 432.725H818C805.98 475.888 781.939 511.129 745.879 538.448C709.819 565.22 665.016 578.606 611.472 578.606C568.855 578.606 530.609 569.045 496.734 549.922C463.406 530.799 437.18 503.753 418.057 468.786C398.934 433.272 389.372 392.294 389.372 345.852C389.372 299.411 398.661 258.706 417.237 223.739C435.814 188.771 461.766 161.999 495.095 143.422C528.97 124.299 567.762 114.738 611.472 114.738C654.089 114.738 691.788 124.026 724.571 142.603C757.353 161.179 782.486 186.859 799.97 219.641C818 251.877 827.015 288.483 827.015 329.461ZM749.977 313.89C749.977 285.478 743.693 261.165 731.127 240.949C718.56 220.187 701.35 204.616 679.495 194.235C658.187 183.307 634.419 177.843 608.194 177.843C570.494 177.843 538.258 189.864 511.486 213.904C485.26 237.944 470.235 271.273 466.411 313.89H749.977ZM1086.91 113.918C1141.55 113.918 1185.8 130.582 1219.68 163.911C1253.55 196.693 1270.49 244.227 1270.49 306.514V571.23H1196.73V317.168C1196.73 272.366 1185.53 238.217 1163.13 214.723C1140.73 190.683 1110.13 178.663 1071.34 178.663C1032 178.663 1000.58 190.956 977.09 215.543C954.142 240.13 942.668 275.917 942.668 322.905V571.23H868.089V122.114H942.668V186.039C957.42 163.091 977.363 145.334 1002.5 132.768C1028.18 120.201 1056.31 113.918 1086.91 113.918ZM1425.92 183.58V448.297C1425.92 470.152 1430.56 485.723 1439.85 495.011C1449.14 503.753 1465.26 508.124 1488.2 508.124H1543.11V571.23H1475.91C1434.39 571.23 1403.24 561.669 1382.48 542.546C1361.72 523.423 1351.34 492.006 1351.34 448.297V183.58H1293.15V122.114H1351.34V9.01504H1425.92V122.114H1543.11V183.58H1425.92ZM1548.24 345.033C1548.24 299.138 1557.53 258.979 1576.11 224.558C1594.68 189.59 1620.09 162.545 1652.33 143.422C1685.11 124.299 1721.44 114.738 1761.33 114.738C1800.67 114.738 1834.81 123.206 1863.77 140.144C1892.73 157.081 1914.31 178.39 1928.52 204.069V122.114H2003.92V571.23H1928.52V487.635C1913.76 513.861 1891.64 535.716 1862.13 553.2C1833.18 570.137 1799.3 578.606 1760.51 578.606C1720.62 578.606 1684.56 568.771 1652.33 549.102C1620.09 529.433 1594.68 501.841 1576.11 466.327C1557.53 430.813 1548.24 390.382 1548.24 345.033ZM1928.52 345.852C1928.52 311.977 1921.69 282.473 1908.03 257.34C1894.37 232.207 1875.79 213.084 1852.3 199.971C1829.35 186.312 1803.94 179.483 1776.08 179.483C1748.21 179.483 1722.81 186.039 1699.86 199.152C1676.91 212.265 1658.61 231.388 1644.95 256.521C1631.29 281.654 1624.46 311.158 1624.46 345.033C1624.46 379.454 1631.29 409.504 1644.95 435.184C1658.61 460.317 1676.91 479.713 1699.86 493.372C1722.81 506.485 1748.21 513.042 1776.08 513.042C1803.94 513.042 1829.35 506.485 1852.3 493.372C1875.79 479.713 1894.37 460.317 1908.03 435.184C1921.69 409.504 1928.52 379.727 1928.52 345.852ZM2257.8 114.738C2296.59 114.738 2330.47 123.206 2359.42 140.144C2388.93 157.081 2410.78 178.39 2424.99 204.069V122.114H2500.39V581.065C2500.39 622.043 2491.65 658.376 2474.16 690.066C2456.68 722.301 2431.54 747.435 2398.76 765.465C2366.53 783.495 2328.83 792.51 2285.66 792.51C2226.66 792.51 2177.48 778.578 2138.14 750.713C2098.8 722.848 2075.58 684.875 2068.48 636.795H2142.24C2150.44 664.113 2167.37 685.968 2193.05 702.359C2218.73 719.296 2249.6 727.765 2285.66 727.765C2326.64 727.765 2359.97 714.925 2385.65 689.246C2411.88 663.567 2424.99 627.506 2424.99 581.065V486.816C2410.24 513.042 2388.38 534.896 2359.42 552.38C2330.47 569.864 2296.59 578.606 2257.8 578.606C2217.91 578.606 2181.58 568.771 2148.8 549.102C2116.56 529.433 2091.16 501.841 2072.58 466.327C2054 430.813 2044.71 390.382 2044.71 345.033C2044.71 299.138 2054 258.979 2072.58 224.558C2091.16 189.59 2116.56 162.545 2148.8 143.422C2181.58 124.299 2217.91 114.738 2257.8 114.738ZM2424.99 345.852C2424.99 311.977 2418.16 282.473 2404.5 257.34C2390.84 232.207 2372.26 213.084 2348.77 199.971C2325.82 186.312 2300.42 179.483 2272.55 179.483C2244.69 179.483 2219.28 186.039 2196.33 199.152C2173.38 212.265 2155.08 231.388 2141.42 256.521C2127.76 281.654 2120.93 311.158 2120.93 345.033C2120.93 379.454 2127.76 409.504 2141.42 435.184C2155.08 460.317 2173.38 479.713 2196.33 493.372C2219.28 506.485 2244.69 513.042 2272.55 513.042C2300.42 513.042 2325.82 506.485 2348.77 493.372C2372.26 479.713 2390.84 460.317 2404.5 435.184C2418.16 409.504 2424.99 379.727 2424.99 345.852ZM2764.92 578.606C2722.85 578.606 2684.61 569.045 2650.19 549.922C2616.31 530.799 2589.54 503.753 2569.87 468.786C2550.75 433.272 2541.19 392.294 2541.19 345.852C2541.19 299.957 2551.02 259.526 2570.69 224.558C2590.91 189.044 2618.22 161.999 2652.65 143.422C2687.07 124.299 2725.59 114.738 2768.2 114.738C2810.82 114.738 2849.34 124.299 2883.76 143.422C2918.18 161.999 2945.23 188.771 2964.9 223.739C2985.11 258.706 2995.22 299.411 2995.22 345.852C2995.22 392.294 2984.84 433.272 2964.08 468.786C2943.86 503.753 2916.27 530.799 2881.3 549.922C2846.33 569.045 2807.54 578.606 2764.92 578.606ZM2764.92 513.042C2791.7 513.042 2816.83 506.758 2840.32 494.192C2863.82 481.625 2882.67 462.776 2896.87 437.643C2911.62 412.51 2919 381.913 2919 345.852C2919 309.792 2911.9 279.195 2897.69 254.062C2883.49 228.929 2864.91 210.353 2841.96 198.332C2819.02 185.766 2794.16 179.483 2767.38 179.483C2740.06 179.483 2714.93 185.766 2691.98 198.332C2669.58 210.353 2651.55 228.929 2637.89 254.062C2624.23 279.195 2617.4 309.792 2617.4 345.852C2617.4 382.459 2623.96 413.329 2637.07 438.462C2650.73 463.595 2668.76 482.445 2691.16 495.011C2713.57 507.032 2738.15 513.042 2764.92 513.042ZM3254.73 113.918C3309.37 113.918 3353.62 130.582 3387.5 163.911C3421.37 196.693 3438.31 244.227 3438.31 306.514V571.23H3364.55V317.168C3364.55 272.366 3353.35 238.217 3330.95 214.723C3308.55 190.683 3277.95 178.663 3239.16 178.663C3199.82 178.663 3168.4 190.956 3144.91 215.543C3121.96 240.13 3110.49 275.917 3110.49 322.905V571.23H3035.91V122.114H3110.49V186.039C3125.24 163.091 3145.18 145.334 3170.32 132.768C3196 120.201 3224.13 113.918 3254.73 113.918Z" fill="white"/>
</svg>
